<?xml version="1.0" encoding="UTF-8"?><svg id="Layer_1" xmlns="http://www.w3.org/2000/svg" viewBox="0 0 118.68 430.39"><defs><style>.cls-1{fill:#77b8e2;stroke-width:0px;}</style></defs><path class="cls-1" d="M9.23,430.39H0v-36.66h9.23v12.69h32.95v11.29H9.23v12.69Z"/><path class="cls-1" d="M42.18,391.85L0,375.37v-40.53h9.23v18.95h7.25v-17.38h9.23v17.38h7.25v-18.87h9.23v30.32H11.62v2.88l30.57,11.12v12.6ZM34.11,381.71h-8.57v-23.23h8.57v23.23Z"/><path class="cls-1" d="M42.18,324.8H0v-11.45h17.05v-.58l-17.05-12.69v-13.35l18.78,14.25,23.4-14.58v13.68l-15.82,9.47,4.94,3.79h10.88v11.45Z"/><path class="cls-1" d="M42.18,279.01H0v-11.45h17.05v-.58L0,254.29v-13.35l18.78,14.25,23.4-14.58v13.68l-15.82,9.47,4.94,3.79h10.88v11.45Z"/><path class="cls-1" d="M42.18,233.22H0v-30.4h9.23v18.95h7.25v-17.38h9.23v17.38h7.25v-18.87h9.23v30.32Z"/><path class="cls-1" d="M42.18,192.78H0v-18.21c0-3.13.57-5.87,1.71-8.22,1.14-2.35,2.78-4.17,4.92-5.48,2.14-1.3,4.71-1.96,7.7-1.96s5.57.67,7.64,2.01,3.64,3.21,4.7,5.62c1.06,2.41,1.59,5.22,1.59,8.43v10.88h-8.9v-8.57c0-1.35-.17-2.5-.5-3.45-.34-.95-.88-1.69-1.62-2.2-.74-.51-1.71-.77-2.9-.77s-2.19.26-2.96.77c-.76.52-1.33,1.25-1.69,2.2-.36.95-.55,2.1-.55,3.45v4.04h33.04v11.45ZM22.82,168.07l19.36-10.55v12.44l-19.36,10.3v-12.19Z"/><path class="cls-1" d="M118.18,429.23h-42.18v-18.21c0-3.13.57-5.87,1.71-8.22,1.14-2.35,2.78-4.17,4.92-5.48,2.14-1.3,4.71-1.96,7.7-1.96s5.57.67,7.64,2.01,3.64,3.21,4.7,5.62c1.06,2.41,1.59,5.22,1.59,8.43v10.88h-8.9v-8.57c0-1.35-.17-2.5-.5-3.45-.34-.95-.88-1.69-1.62-2.2-.74-.51-1.71-.77-2.9-.77s-2.19.26-2.96.77c-.76.52-1.33,1.25-1.69,2.2-.36.95-.55,2.1-.55,3.45v4.04h33.04v11.45ZM98.82,404.52l19.36-10.55v12.44l-19.36,10.3v-12.19Z"/><path class="cls-1" d="M118.18,386.16h-42.18v-30.4h9.23v18.95h7.25v-17.38h9.23v17.38h7.25v-18.87h9.23v30.32Z"/><path class="cls-1" d="M118.18,334.77v12.36l-42.18-13.92v-15.65l42.18-13.92v12.36l-30.57,9.23v.33l30.57,9.23ZM101.54,337.08v-23.23h8.57v23.23h-8.57Z"/><path class="cls-1" d="M118.18,295.24h-42.18v-11.45h32.95v-17.05h9.23v28.51Z"/><path class="cls-1" d="M118.18,241.89h-42.18v-30.4h9.23v18.95h7.25v-17.38h9.23v17.38h7.25v-18.87h9.23v30.32Z"/><path class="cls-1" d="M89.18,178.71c-1.37.11-2.44.62-3.21,1.53s-1.15,2.3-1.15,4.15c0,1.18.14,2.15.42,2.89.28.75.66,1.3,1.14,1.66s1.03.54,1.65.56c.51.03.96-.07,1.37-.28.41-.21.77-.55,1.09-1.02.32-.47.62-1.06.88-1.79.26-.73.49-1.59.7-2.6l.74-3.46c.49-2.33,1.15-4.33,1.96-5.99.81-1.66,1.76-3.02,2.85-4.08,1.09-1.06,2.32-1.84,3.68-2.34,1.36-.5,2.84-.76,4.45-.77,2.77.01,5.12.71,7.04,2.08,1.92,1.37,3.38,3.33,4.39,5.88,1,2.55,1.5,5.61,1.5,9.18s-.54,6.86-1.63,9.59c-1.08,2.73-2.76,4.84-5.02,6.34-2.26,1.5-5.15,2.26-8.68,2.28v-10.88c1.29-.07,2.38-.39,3.25-.97s1.54-1.39,2-2.44c.45-1.05.68-2.3.68-3.76,0-1.22-.15-2.25-.45-3.07s-.72-1.45-1.26-1.87c-.54-.43-1.15-.65-1.83-.66-.65.01-1.21.22-1.7.63-.49.41-.93,1.07-1.32,1.99-.39.92-.76,2.16-1.1,3.73l-.91,4.2c-.81,3.73-2.17,6.68-4.07,8.83-1.9,2.15-4.5,3.22-7.79,3.2-2.68.01-5.02-.7-7.03-2.15s-3.58-3.46-4.71-6.03c-1.13-2.57-1.69-5.53-1.69-8.87s.57-6.35,1.71-8.84c1.14-2.48,2.74-4.4,4.81-5.76s4.48-2.04,7.24-2.05v10.96Z"/><path class="cls-1" d="M85.23,159.62h-9.23v-36.66h9.23v12.69h32.95v11.29h-32.95v12.69Z"/><path class="cls-1" d="M118.18,108.72v12.36l-42.18-13.92v-15.65l42.18-13.92v12.36l-30.57,9.23v.33l30.57,9.23ZM101.54,111.02v-23.23h8.57v23.23h-8.57Z"/><path class="cls-1" d="M85.23,75.7h-9.23v-36.66h9.23v12.69h32.95v11.29h-32.95v12.69Z"/><path class="cls-1" d="M118.18,30.4h-42.18V0h9.23v18.95h7.25V1.56h9.23v17.38h7.25V.08h9.23v30.32Z"/></svg>