<?xml version="1.0" encoding="UTF-8"?><svg id="Layer_1" xmlns="http://www.w3.org/2000/svg" viewBox="0 0 120.41 846.27"><defs><style>.cls-1{fill:#a9ba2f;stroke-width:0px;}</style></defs><path class="cls-1" d="M9.23,846.27H0v-36.66h9.23v12.69h32.95v11.29H9.23v12.69Z"/><path class="cls-1" d="M42.18,807.73L0,791.26v-40.53h9.23v18.95h7.25v-17.38h9.23v17.38h7.25v-18.87h9.23v30.32H11.62v2.88l30.57,11.12v12.6ZM34.11,797.6h-8.57v-23.23h8.57v23.23Z"/><path class="cls-1" d="M42.18,740.69H0v-11.45h17.05v-.58l-17.05-12.69v-13.35l18.78,14.25,23.4-14.58v13.68l-15.82,9.47,4.94,3.79h10.88v11.45Z"/><path class="cls-1" d="M42.18,694.9H0v-11.45h17.05v-.58l-17.05-12.69v-13.35l18.78,14.25,23.4-14.58v13.68l-15.82,9.47,4.94,3.79h10.88v11.45Z"/><path class="cls-1" d="M42.18,649.11H0v-30.4h9.23v18.95h7.25v-17.38h9.23v17.38h7.25v-18.87h9.23v30.32Z"/><path class="cls-1" d="M42.18,608.67H0v-18.21c0-3.13.57-5.87,1.71-8.22,1.14-2.35,2.78-4.17,4.92-5.48,2.14-1.3,4.71-1.96,7.7-1.96s5.57.67,7.64,2.01,3.64,3.21,4.7,5.62c1.06,2.41,1.59,5.22,1.59,8.43v10.88h-8.9v-8.57c0-1.35-.17-2.5-.5-3.45-.34-.95-.88-1.69-1.62-2.2s-1.71-.77-2.9-.77-2.19.26-2.96.77c-.76.51-1.33,1.25-1.69,2.2-.36.95-.55,2.1-.55,3.45v4.04h33.04v11.45ZM22.82,583.96l19.36-10.55v12.44l-19.36,10.3v-12.19Z"/><path class="cls-1" d="M118.18,845.12h-42.18v-18.21c0-3.13.57-5.87,1.71-8.22,1.14-2.35,2.78-4.17,4.92-5.48,2.14-1.3,4.71-1.96,7.7-1.96s5.57.67,7.64,2.01,3.64,3.21,4.7,5.62c1.06,2.41,1.59,5.22,1.59,8.43v10.88h-8.9v-8.57c0-1.35-.17-2.5-.5-3.45-.34-.95-.88-1.69-1.62-2.2-.74-.51-1.71-.77-2.9-.77s-2.19.26-2.96.77c-.76.52-1.33,1.25-1.69,2.2-.36.95-.55,2.1-.55,3.45v4.04h33.04v11.45ZM98.82,820.4l19.36-10.55v12.44l-19.36,10.3v-12.19Z"/><path class="cls-1" d="M118.18,791.09v12.36l-42.18-13.92v-15.65l42.18-13.92v12.36l-30.57,9.23v.33l30.57,9.23ZM101.54,793.4v-23.23h8.57v23.23h-8.57ZM74.11,781.7c0,1.21-.29,2.31-.86,3.32-.57,1-1.33,1.8-2.3,2.39s-2.03.89-3.19.89-2.23-.3-3.19-.89-1.73-1.39-2.3-2.39c-.57-1-.85-2.11-.85-3.32s.29-2.33.85-3.33c.57-1,1.34-1.79,2.3-2.38s2.03-.89,3.19-.89,2.23.3,3.19.89,1.73,1.38,2.3,2.38c.57,1,.86,2.1.86,3.33ZM70.23,781.7c-.01-.71-.26-1.33-.74-1.85-.48-.52-1.06-.78-1.75-.78s-1.25.26-1.74.77c-.49.51-.72,1.14-.71,1.86.01.71.26,1.33.73,1.85.47.52,1.05.78,1.74.78s1.26-.26,1.75-.77c.5-.52.74-1.14.72-1.86Z"/><path class="cls-1" d="M118.18,735.33v16.23h-42.18v-16.07c0-4.34.84-8.09,2.52-11.26,1.68-3.17,4.1-5.61,7.25-7.33,3.15-1.72,6.92-2.58,11.32-2.58s8.17.86,11.32,2.57c3.15,1.72,5.57,4.15,7.25,7.29,1.68,3.14,2.52,6.86,2.52,11.14ZM108.46,740.11v-4.37c0-2.09-.34-3.87-1.01-5.34-.67-1.48-1.83-2.6-3.48-3.38-1.65-.78-3.94-1.16-6.88-1.16s-5.23.4-6.88,1.18-2.81,1.94-3.48,3.46c-.67,1.52-1.01,3.37-1.01,5.57v4.04h22.74Z"/><path class="cls-1" d="M89.92,677.31c-.73.18-1.37.46-1.93.84-.56.38-1.03.86-1.42,1.43-.39.57-.69,1.23-.89,1.98-.2.75-.3,1.57-.3,2.46,0,1.92.46,3.56,1.38,4.91s2.25,2.38,3.97,3.09c1.73.71,3.82,1.06,6.26,1.06s4.59-.34,6.34-1.01,3.1-1.68,4.04-3.01c.93-1.33,1.4-2.99,1.4-4.96,0-1.74-.25-3.2-.76-4.36-.51-1.16-1.23-2.03-2.16-2.61s-2.03-.87-3.3-.87l.21-1.98v9.64h-8.16v-18.7h5.85c3.84,0,7.13.81,9.86,2.44,2.73,1.63,4.81,3.87,6.26,6.71,1.45,2.85,2.17,6.11,2.17,9.79,0,4.11-.87,7.71-2.62,10.81-1.74,3.1-4.23,5.52-7.46,7.26-3.23,1.74-7.06,2.61-11.51,2.61-3.49,0-6.58-.53-9.27-1.6-2.69-1.06-4.97-2.54-6.83-4.44s-3.27-4.08-4.22-6.57c-.95-2.48-1.43-5.15-1.43-7.99,0-2.5.35-4.82,1.06-6.97s1.71-4.05,3.01-5.71,2.83-2.99,4.6-4.01c1.77-1.02,3.71-1.63,5.83-1.85v11.58Z"/><path class="cls-1" d="M76,644.08h42.18v11.45h-42.18v-11.45Z"/><path class="cls-1" d="M76,622.76l29.74-8.65v-.33l-29.74-8.65v-12.93l42.18,13.92v15.65l-42.18,13.92v-12.93Z"/><path class="cls-1" d="M118.18,583.81h-42.18v-30.4h9.23v18.95h7.25v-17.38h9.23v17.38h7.25v-18.87h9.23v30.32Z"/><path class="cls-1" d="M76,506.88h42.18v9.56l-22.16,15.24v.25h22.16v11.45h-42.18v-9.72l22.08-14.99v-.33h-22.08v-11.45Z"/><path class="cls-1" d="M118.18,480.86v16.23h-42.18v-16.07c0-4.34.84-8.09,2.52-11.26,1.68-3.17,4.1-5.61,7.25-7.33,3.15-1.72,6.92-2.58,11.32-2.58s8.17.86,11.32,2.57c3.15,1.72,5.57,4.15,7.25,7.29,1.68,3.14,2.52,6.86,2.52,11.14ZM108.46,485.63v-4.37c0-2.09-.34-3.87-1.01-5.34-.67-1.48-1.83-2.6-3.48-3.38-1.65-.78-3.94-1.16-6.88-1.16s-5.23.39-6.88,1.18c-1.65.79-2.81,1.94-3.48,3.46-.67,1.52-1.01,3.37-1.01,5.57v4.04h22.74Z"/><path class="cls-1" d="M118.18,450.23h-42.18v-30.4h9.23v18.95h7.25v-17.38h9.23v17.38h7.25v-18.87h9.23v30.32Z"/><path class="cls-1" d="M76,382.45h42.18v11.45h-42.18v-11.45Z"/><path class="cls-1" d="M76,336.17h42.18v9.56l-22.16,15.24v.25h22.16v11.45h-42.18v-9.72l22.08-14.99v-.33h-22.08v-11.45Z"/><path class="cls-1" d="M89.92,298.99c-.73.18-1.37.46-1.93.84-.56.38-1.03.86-1.42,1.43-.39.57-.69,1.23-.89,1.98-.2.75-.3,1.57-.3,2.46,0,1.92.46,3.56,1.38,4.91s2.25,2.38,3.97,3.09c1.73.71,3.82,1.06,6.26,1.06s4.59-.34,6.34-1.01c1.76-.67,3.1-1.67,4.04-3.01s1.4-2.99,1.4-4.96c0-1.74-.25-3.2-.76-4.36-.51-1.16-1.23-2.03-2.16-2.61-.93-.58-2.03-.86-3.3-.86l.21-1.98v9.64h-8.16v-18.7h5.85c3.84,0,7.13.81,9.86,2.44s4.81,3.87,6.26,6.71c1.45,2.85,2.17,6.11,2.17,9.79,0,4.11-.87,7.71-2.62,10.81-1.74,3.1-4.23,5.52-7.46,7.26-3.23,1.74-7.06,2.61-11.51,2.61-3.49,0-6.58-.53-9.27-1.6-2.69-1.06-4.97-2.54-6.83-4.44s-3.27-4.08-4.22-6.57c-.95-2.49-1.43-5.15-1.43-7.99,0-2.5.35-4.82,1.06-6.97.71-2.15,1.71-4.05,3.01-5.71,1.3-1.65,2.83-2.99,4.6-4.01,1.77-1.02,3.71-1.63,5.83-1.85v11.58Z"/><path class="cls-1" d="M118.18,277.21h-42.18v-30.4h9.23v18.95h7.25v-17.38h9.23v17.38h7.25v-18.87h9.23v30.32Z"/><path class="cls-1" d="M76,200.28h42.18v9.56l-22.16,15.24v.25h22.16v11.45h-42.18v-9.72l22.08-14.99v-.33h-22.08v-11.45Z"/><path class="cls-1" d="M76,179.04h42.18v11.45h-42.18v-11.45Z"/><path class="cls-1" d="M97.09,128.39c4.7,0,8.65.91,11.87,2.74s5.66,4.29,7.31,7.39c1.66,3.1,2.48,6.56,2.48,10.38s-.83,7.32-2.5,10.41c-1.67,3.1-4.11,5.55-7.33,7.37s-7.16,2.73-11.83,2.73-8.65-.91-11.87-2.73c-3.22-1.82-5.66-4.28-7.31-7.37s-2.48-6.57-2.48-10.41.83-7.28,2.48-10.38c1.65-3.1,4.09-5.57,7.31-7.39,3.22-1.83,7.18-2.74,11.87-2.74ZM120.41,162l-3.13,4.61-43.42-30.81,3.13-4.61,43.42,30.81ZM97.09,140.17c-2.53,0-4.66.33-6.4,1-1.74.67-3.05,1.65-3.95,2.95-.9,1.3-1.35,2.89-1.35,4.79s.45,3.49,1.35,4.79,2.22,2.28,3.95,2.95c1.74.67,3.87,1,6.4,1s4.66-.33,6.4-1,3.06-1.65,3.95-2.95c.9-1.3,1.35-2.89,1.35-4.79s-.45-3.49-1.35-4.79c-.9-1.3-2.22-2.28-3.95-2.95s-3.87-1-6.4-1Z"/><path class="cls-1" d="M118.18,118.77h-42.18v-18.21c0-3.13.57-5.87,1.71-8.22,1.14-2.35,2.78-4.17,4.92-5.48,2.14-1.3,4.71-1.96,7.7-1.96s5.57.67,7.64,2.01,3.64,3.21,4.7,5.62c1.06,2.41,1.59,5.22,1.59,8.43v10.88h-8.9v-8.57c0-1.35-.17-2.5-.5-3.45-.34-.95-.88-1.69-1.62-2.2s-1.71-.77-2.9-.77-2.19.26-2.96.77c-.76.51-1.33,1.25-1.69,2.2-.36.95-.55,2.1-.55,3.45v4.04h33.04v11.45ZM98.82,94.05l19.36-10.55v12.44l-19.36,10.3v-12.19Z"/><path class="cls-1" d="M118.18,75.7h-42.18v-30.4h9.23v18.95h7.25v-17.38h9.23v17.38h7.25v-18.87h9.23v30.32Z"/><path class="cls-1" d="M118.18,35.26h-42.18v-18.21c0-3.13.57-5.87,1.71-8.22,1.14-2.35,2.78-4.17,4.92-5.48,2.14-1.3,4.71-1.96,7.7-1.96s5.57.67,7.64,2.01,3.64,3.21,4.7,5.62c1.06,2.41,1.59,5.22,1.59,8.43v10.88h-8.9v-8.57c0-1.35-.17-2.5-.5-3.45-.34-.95-.88-1.69-1.62-2.2s-1.71-.77-2.9-.77-2.19.26-2.96.77c-.76.51-1.33,1.25-1.69,2.2-.36.95-.55,2.1-.55,3.45v4.04h33.04v11.45ZM98.82,10.55L118.18,0v12.44l-19.36,10.3v-12.19Z"/></svg>